<?xml version="1.0" encoding="utf-8"?>
<!-- Generator: Adobe Illustrator 24.3.0, SVG Export Plug-In . SVG Version: 6.00 Build 0)  -->
<svg version="1.1" xmlns="http://www.w3.org/2000/svg" xmlns:xlink="http://www.w3.org/1999/xlink" x="0px" y="0px"
	 viewBox="0 0 96 96" style="enable-background:new 0 0 96 96;" xml:space="preserve">
<style type="text/css">
	.st0{fill:url(#SVGID_1_);}
	.st1{fill:#FFFFFF;}
	.st2{fill:none;}
	.st3{fill:#E7864D;}
	.st4{font-family:'InaiMathi-Bold';}
	.st5{font-size:48px;}
	.st6{display:none;}
	.st7{display:inline;fill:none;}
	.st8{display:inline;fill:#FFFFFF;}
</style>
<g id="Layer_1">
	<linearGradient id="SVGID_1_" gradientUnits="userSpaceOnUse" x1="0.184" y1="48.6702" x2="94.8436" y2="48.6702">
		<stop  offset="0" style="stop-color:#004B6E"/>
		<stop  offset="1" style="stop-color:#006081"/>
	</linearGradient>
	<circle class="st0" cx="47.51" cy="48.67" r="47.33"/>
</g>
<g id="Layer_2">
	<g>
		<g>
			<path class="st1" d="M28.58,85.75c5.79-0.2,11.56-0.74,17.18-2.02c5.59-1.36,11.03-3.38,15.88-6.39c4.84-3,9.1-6.95,12.19-11.7
				c3.12-4.72,5.42-9.95,6.94-15.45l1.62,0.39c-1.22,5.75-3.47,11.37-6.95,16.2c-3.43,4.86-8.02,8.81-13.09,11.77
				c-5.1,2.95-10.7,4.89-16.42,6.04c-5.74,1.07-11.56,1.39-17.36,1.37V85.75z"/>
			<g>
				<polygon class="st1" points="83.16,36.34 88.65,57.12 81.2,51.39 72.53,55.02 				"/>
			</g>
		</g>
	</g>
</g>
<g id="Layer_5">
	<rect x="13.62" y="32.05" class="st2" width="71.23" height="37.07"/>
	<text transform="matrix(1 0 0 1 13.6223 64.7367)" class="st3 st4 st5">SD</text>
</g>
<g id="Layer_4">
</g>
<g id="Layer_3" class="st6">
	<rect x="17.25" y="30.79" class="st7" width="77.95" height="51.69"/>
	<text transform="matrix(1 0 0 1 17.251 63.4746)" class="st8 st4 st5">Biz</text>
</g>
</svg>
